<svg width="600" height="600" viewBox="0 0 600 600" fill="none" xmlns="http://www.w3.org/2000/svg">
<rect width="600" height="600" rx="50" fill="#593510"/>
<path d="M183.4 227.948C216.543 236.338 258.94 240.604 309.917 240.604C362.067 240.604 403.481 236.35 436.493 227.948C471.734 219.737 488.643 208.693 488.643 198.265C488.643 190.859 481.048 183.572 467.29 178.026C470.442 180.124 472.848 183.584 472.848 187.34C472.848 197.957 456.863 206.655 424.833 213.883C395.091 220.365 357.196 224.998 311.031 224.998C266.477 224.998 226.852 220.365 198.212 214.262C167.415 206.667 151.311 198.467 151.311 187.719C151.311 183.276 153.349 179.448 159.523 175.064C140.268 182.47 129.84 188.762 129.84 198.265C130.954 209.001 148.159 219.737 183.4 227.948ZM257.459 193.822C293.375 190.67 303.803 167.587 345.833 163.831C366.51 162.231 379.592 166.366 381.014 173.642C382.306 180.432 372.008 184.994 359.531 185.918C342.314 187.707 335.216 181.534 333.794 175.668C321.02 177.09 318.923 182.458 319.598 186.226C321.02 193.514 336.448 200.789 363.05 198.265C393.041 195.919 403.161 184.07 400.637 172.22C397.485 156.733 374.402 143.769 333 147.715C279.926 152.467 280.234 177.09 244.069 180.112C229.198 181.534 220.986 178.015 219.564 172.208C218.64 166.343 225.857 163.511 234.436 162.895C242.339 162.089 251.961 163.511 256.535 166.047C259.865 164.317 260.978 162.527 260.67 160.489C259.071 154.991 248.145 152.585 234.436 153.581C207.585 155.927 207.585 167.966 208.509 173.334C211.163 187.032 231.912 196.227 257.459 193.822ZM437.915 254.491C404.713 262.265 362.375 267.324 311.339 267.324C259.248 267.324 216.732 261.956 183.708 254.669C154.025 247.073 138.218 238.684 132.672 230.046C135.516 249.42 140.445 268.249 146.749 286.082C139.154 290.834 132.364 296.699 126.202 304.603C114.91 318.36 109.163 335.826 110.099 353.601C111.272 369.953 119.412 385.073 132.565 394.955C146.263 405.691 161.135 408.902 178.056 405.691C184.537 404.577 191.813 401.307 198.425 399.091C184.537 399.091 172.818 394.647 161.146 385.333C148.313 376.446 139.794 362.559 137.566 347.131C134.414 332.26 137.566 318.49 145.955 306.333C147.863 303.987 149.901 301.889 152.129 300.041C156.881 311.582 161.94 322.934 167.616 333.492C180.39 352.937 193.223 369.846 206.009 388.177C211.566 398.913 215.145 409.53 217.669 420.088C226.248 431.938 238.713 440.327 252.909 443.787C271.11 450.138 290.057 452.982 309.502 451.868H311.54C331.293 452.733 351.106 449.961 369.864 443.657C383.443 439.64 395.411 431.381 403.99 420.076H405.104C407.142 409.518 410.602 398.913 415.662 388.166C428.317 369.716 441.269 352.925 453.924 333.48C471.331 301.261 483.299 266.329 489.283 230.164C482.493 239.668 466.508 247.998 437.939 254.479L437.915 254.491Z" fill="white"/>
</svg>
