<?xml version="1.0" encoding="utf-8"?>
<!-- Svg Vector Icons : http://www.onlinewebfonts.com/icon -->
<!DOCTYPE svg PUBLIC "-//W3C//DTD SVG 1.1//EN" "http://www.w3.org/Graphics/SVG/1.1/DTD/svg11.dtd">
<svg version="1.1" xmlns="http://www.w3.org/2000/svg" xmlns:xlink="http://www.w3.org/1999/xlink" x="0px" y="0px" viewBox="0 0 1000 1000" enable-background="new 0 0 1000 1000" xml:space="preserve">
<metadata> Svg Vector Icons : http://www.onlinewebfonts.com/icon </metadata>
<g><path d="M520.6,54.8l133.2,265c2.8,6.9,9.7,11.1,18,12.5l298.3,43c19.4,2.8,26.4,25,12.5,38.9L766.3,619.6c-5.6,5.5-8.3,12.5-6.9,19.4l51.3,291.4c2.8,18-16.7,33.3-33.3,23.6L510.9,816.6c-6.9-4.2-15.3-4.2-22.2,0L222.3,955.4c-16.7,8.3-37.5-5.5-33.3-23.6l51.3-291.4c1.4-6.9-1.4-15.3-6.9-19.4L16.9,412.8c-13.9-12.5-5.6-36.1,12.5-38.9l298.3-43c6.9-1.4,13.9-5.6,18-12.5L479,53.4C487.3,38.2,512.3,38.2,520.6,54.8z"/></g>
</svg>